<svg width="22" height="20" viewBox="0 0 22 20" fill="none" xmlns="http://www.w3.org/2000/svg">
<path d="M11.0007 12C10.4484 12 10.0007 11.5523 10.0007 11V8C10.0007 7.44772 10.4484 7 11.0007 7C11.5529 7 12.0007 7.44772 12.0007 8V11C12.0007 11.5523 11.5529 12 11.0007 12Z" fill="#E49400"/>
<path d="M9.50066 14.5C9.50066 13.6716 10.1722 13 11.0007 13C11.8291 13 12.5007 13.6716 12.5007 14.5C12.5007 15.3284 11.8291 16 11.0007 16C10.1722 16 9.50066 15.3284 9.50066 14.5Z" fill="#E49400"/>
<path d="M9.23082 1.2156C9.98065 -0.20907 12.0207 -0.209079 12.7705 1.2156L21.1141 17.0685C21.8151 18.4003 20.8493 20 19.3443 20H2.65702C1.152 20 0.186227 18.4003 0.887185 17.0685L9.23082 1.2156ZM19.3443 18L11.0007 2.1471L2.65702 18L19.3443 18Z" fill="#E49400"/>
</svg>
